<?xml version="1.0"?>
<!DOCTYPE svg PUBLIC "-//W3C//DTD SVG 1.1//EN" "http://www.w3.org/Graphics/SVG/1.1/DTD/svg11.dtd">
<svg xmlns="http://www.w3.org/2000/svg" xmlns:xlink="http://www.w3.org/1999/xlink" id="svgfile" style="position:absolute;height:600px;width:800px" version="1.1" viewBox="0 0 800 600">
  <image id="image1" class="slide" in="0.0" out="152.1" xlink:href="presentation/d2d9a672040fbde2a47a10bf6c37b6a4b5ae187f-1602306057450/slide-1.png" width="1600" height="900" x="0" y="0" style="visibility:hidden" text="presentation/d2d9a672040fbde2a47a10bf6c37b6a4b5ae187f-1602306057450/textfiles/slide-1.txt"/>
  <g class="canvas" id="canvas1" image="image1" display="none">
    <g id="image1-draw1" class="shape" timestamp="40.0" undo="-1" shape="image1-pencil1" style="stroke:none;fill:#ff0000;visibility:hidden">
      <circle cx="209.70877" cy="701.49127" r="3.8835"/>
    </g>
    <g id="image1-draw3" class="shape" timestamp="40.1" undo="-1" shape="image1-pencil1" style="stroke:#ff0000;stroke-linecap:round;stroke-linejoin:round;stroke-width:7.76699;visibility:hidden;fill:none">
      <path d="M209.70877 701.49127L233.00975 664.87523L239.66713 654.88927L252.982 629.36915L260.749 614.94456L279.61164 583.8766L299.58392 549.47993"/>
    </g>
    <g id="image1-draw7" class="shape" timestamp="40.2" undo="-1" shape="image1-pencil1" style="stroke:#ff0000;stroke-linecap:round;stroke-linejoin:round;stroke-width:7.76699;visibility:hidden;fill:none">
      <path d="M209.70877 701.49127L233.00975 664.87523L239.66713 654.88927L252.982 629.36915L260.749 614.94456L279.61164 583.8766L299.58392 549.47993L310.6796 531.72699L321.77533 513.97369L345.07629 478.46746L356.17198 459.60475L378.36339 424.09854L389.45915 406.34537L413.86968 373.05845L426.07496 356.41495L447.15673 324.23721L457.14294 307.59369L478.22469 276.52573L488.21091 262.10129"/>
    </g>
    <g id="image1-draw9" class="shape" timestamp="40.3" undo="-1" shape="image1-pencil1" style="stroke:#ff0000;stroke-linecap:round;stroke-linejoin:round;stroke-width:7.76699;visibility:hidden;fill:none">
      <path d="M209.70877 701.49127L233.00975 664.87523L239.66713 654.88927L252.982 629.36915L260.749 614.94456L279.61164 583.8766L299.58392 549.47993L310.6796 531.72699L321.77533 513.97369L345.07629 478.46746L356.17198 459.60475L378.36339 424.09854L389.45915 406.34537L413.86968 373.05845L426.07496 356.41495L447.15673 324.23721L457.14294 307.59369L478.22469 276.52573L488.21091 262.10129L508.18309 231.03333L518.1692 216.60889L537.03196 193.3079L545.90856 184.43138L555.89462 172.22613L560.33295 168.8974"/>
    </g>
    <g id="image1-draw12" class="shape" timestamp="40.4" undo="-1" shape="image1-pencil1" style="stroke:#ff0000;stroke-linecap:round;stroke-linejoin:round;stroke-width:7.76699;visibility:hidden;fill:none">
      <path d="M209.70877 701.49127L233.00975 664.87523L239.66713 654.88927L252.982 629.36915L260.749 614.94456L279.61164 583.8766L299.58392 549.47993L310.6796 531.72699L321.77533 513.97369L345.07629 478.46746L356.17198 459.60475L378.36339 424.09854L389.45915 406.34537L413.86968 373.05845L426.07496 356.41495L447.15673 324.23721L457.14294 307.59369L478.22469 276.52573L488.21091 262.10129L508.18309 231.03333L518.1692 216.60889L537.03196 193.3079L545.90856 184.43138L555.89462 172.22613L560.33295 168.8974L566.99031 163.34972L570.31901 162.23994L570.31901 161.13041L571.42868 163.34972L571.42868 164.45914L572.53815 164.45914L572.53815 165.56867L571.42868 166.67844L571.42868 167.78786"/>
    </g>
    <g id="image1-draw15" class="shape" timestamp="40.5" undo="-1" shape="image1-pencil1" style="stroke:#ff0000;stroke-linecap:round;stroke-linejoin:round;stroke-width:7.76699;visibility:hidden;fill:none">
      <path d="M209.70877 701.49127L233.00975 664.87523L239.66713 654.88927L252.982 629.36915L260.749 614.94456L279.61164 583.8766L299.58392 549.47993L310.6796 531.72699L321.77533 513.97369L345.07629 478.46746L356.17198 459.60475L378.36339 424.09854L389.45915 406.34537L413.86968 373.05845L426.07496 356.41495L447.15673 324.23721L457.14294 307.59369L478.22469 276.52573L488.21091 262.10129L508.18309 231.03333L518.1692 216.60889L537.03196 193.3079L545.90856 184.43138L555.89462 172.22613L560.33295 168.8974L566.99031 163.34972L570.31901 162.23994L570.31901 161.13041L571.42868 163.34972L571.42868 164.45914L572.53815 164.45914L572.53815 165.56867L571.42868 166.67844L571.42868 167.78786L571.42868 168.8974L572.53815 171.1167L572.53815 174.44543L574.75728 184.43138L574.75728 192.19837L574.75728 212.17061L575.86685 224.37586L578.08599 253.22477L578.08599 267.64931"/>
    </g>
    <g id="image1-draw18" class="shape" timestamp="40.6" undo="-1" shape="image1-pencil1" style="stroke:#ff0000;stroke-linecap:round;stroke-linejoin:round;stroke-width:7.76699;visibility:hidden;fill:none">
      <path d="M209.70877 701.49127L233.00975 664.87523L239.66713 654.88927L252.982 629.36915L260.749 614.94456L279.61164 583.8766L299.58392 549.47993L310.6796 531.72699L321.77533 513.97369L345.07629 478.46746L356.17198 459.60475L378.36339 424.09854L389.45915 406.34537L413.86968 373.05845L426.07496 356.41495L447.15673 324.23721L457.14294 307.59369L478.22469 276.52573L488.21091 262.10129L508.18309 231.03333L518.1692 216.60889L537.03196 193.3079L545.90856 184.43138L555.89462 172.22613L560.33295 168.8974L566.99031 163.34972L570.31901 162.23994L570.31901 161.13041L571.42868 163.34972L571.42868 164.45914L572.53815 164.45914L572.53815 165.56867L571.42868 166.67844L571.42868 167.78786L571.42868 168.8974L572.53815 171.1167L572.53815 174.44543L574.75728 184.43138L574.75728 192.19837L574.75728 212.17061L575.86685 224.37586L578.08599 253.22477L578.08599 267.64931L575.86685 330.89465L574.75728 345.31921L574.75728 358.63388L575.86685 384.15418L575.86685 397.46885L579.19566 425.20808L581.41474 439.63252L584.7435 468.48129L584.7435 485.12507"/>
    </g>
    <g id="image1-draw21" class="shape" timestamp="40.7" undo="-1" shape="image1-pencil1" style="stroke:#ff0000;stroke-linecap:round;stroke-linejoin:round;stroke-width:7.76699;visibility:hidden;fill:none">
      <path d="M209.70877 701.49127L233.00975 664.87523L239.66713 654.88927L252.982 629.36915L260.749 614.94456L279.61164 583.8766L299.58392 549.47993L310.6796 531.72699L321.77533 513.97369L345.07629 478.46746L356.17198 459.60475L378.36339 424.09854L389.45915 406.34537L413.86968 373.05845L426.07496 356.41495L447.15673 324.23721L457.14294 307.59369L478.22469 276.52573L488.21091 262.10129L508.18309 231.03333L518.1692 216.60889L537.03196 193.3079L545.90856 184.43138L555.89462 172.22613L560.33295 168.8974L566.99031 163.34972L570.31901 162.23994L570.31901 161.13041L571.42868 163.34972L571.42868 164.45914L572.53815 164.45914L572.53815 165.56867L571.42868 166.67844L571.42868 167.78786L571.42868 168.8974L572.53815 171.1167L572.53815 174.44543L574.75728 184.43138L574.75728 192.19837L574.75728 212.17061L575.86685 224.37586L578.08599 253.22477L578.08599 267.64931L575.86685 330.89465L574.75728 345.31921L574.75728 358.63388L575.86685 384.15418L575.86685 397.46885L579.19566 425.20808L581.41474 439.63252L584.7435 468.48129L584.7435 485.12507L585.85302 519.52174L586.96264 536.16526L590.29124 567.23323L591.40086 582.76718L594.72967 611.61585L595.83913 624.93088L596.9487 650.4508L598.05827 673.75178L598.05827 684.84746"/>
    </g>
    <g id="image1-draw25" class="shape" timestamp="40.8" undo="-1" shape="image1-pencil1" style="stroke:#ff0000;stroke-linecap:round;stroke-linejoin:round;stroke-width:7.76699;visibility:hidden;fill:none">
      <path d="M209.70877 701.49127C283.60624 585.82508,350.83088 465.84562,428.29408 352.5314C472.96014 287.19328,508.24509 211.38214,570.31904 162.23993L570.31904 161.13042C582.7124 233.42316,572.49304 307.82291,575.58944 381.10275C580.32611 493.20274,600.24725 604.8738,596.94874 717.02518L596.94874 718.1348L585.85302 701.49127"/>
    </g>
    <g id="image1-draw26" class="shape" timestamp="41.2" undo="-1" shape="image1-pencil2" style="stroke:none;fill:#ff0000;visibility:hidden">
      <circle cx="211.92789" cy="498.43976" r="3.8835"/>
    </g>
    <g id="image1-draw29" class="shape" timestamp="41.3" undo="-1" shape="image1-pencil2" style="stroke:#ff0000;stroke-linecap:round;stroke-linejoin:round;stroke-width:7.76699;visibility:hidden;fill:none">
      <path d="M211.92789 498.43976L246.32456 490.67271L259.63941 487.344L275.17339 482.90573L290.70737 479.57703L325.10401 471.81L342.85721 468.48129L377.25382 462.9335L395.00694 460.71431L430.5132 457.38581"/>
    </g>
    <g id="image1-draw32" class="shape" timestamp="41.4" undo="-1" shape="image1-pencil2" style="stroke:#ff0000;stroke-linecap:round;stroke-linejoin:round;stroke-width:7.76699;visibility:hidden;fill:none">
      <path d="M211.92789 498.43976L246.32456 490.67271L259.63941 487.344L275.17339 482.90573L290.70737 479.57703L325.10401 471.81L342.85721 468.48129L377.25382 462.9335L395.00694 460.71431L430.5132 457.38581L447.15673 456.27604L480.44388 454.05711L497.0874 451.83777L527.0458 450.72835L541.47018 450.72835L569.20954 450.72835L582.52426 449.61884L606.93481 449.61884L618.0306 448.50906"/>
    </g>
    <g id="image1-draw35" class="shape" timestamp="41.5" undo="-1" shape="image1-pencil2" style="stroke:#ff0000;stroke-linecap:round;stroke-linejoin:round;stroke-width:7.76699;visibility:hidden;fill:none">
      <path d="M211.92789 498.43976L246.32456 490.67271L259.63941 487.344L275.17339 482.90573L290.70737 479.57703L325.10401 471.81L342.85721 468.48129L377.25382 462.9335L395.00694 460.71431L430.5132 457.38581L447.15673 456.27604L480.44388 454.05711L497.0874 451.83777L527.0458 450.72835L541.47018 450.72835L569.20954 450.72835L582.52426 449.61884L606.93481 449.61884L618.0306 448.50906L634.67407 449.61884L641.33158 448.50906L653.53678 447.3995L656.86559 447.3995L662.41343 446.29008L664.63257 445.18031L669.07074 445.18031L670.18041 444.07079L672.39955 444.07079"/>
    </g>
    <g id="image1-draw37" class="shape" timestamp="41.6" undo="-1" shape="image1-pencil2" style="stroke:#ff0000;stroke-linecap:round;stroke-linejoin:round;stroke-width:7.76699;visibility:hidden;fill:none">
      <path d="M211.92789 498.43976C265.49698 486.19535,318.69285 471.53705,373.09296 463.76568C443.26534 453.74112,514.44214 451.96504,585.29824 449.89623C616.57733 448.98294,647.7807 444.17169,679.05688 445.1803"/>
    </g>
    <g id="image1-draw38" class="shape" timestamp="41.9" undo="-1" shape="image1-pencil3" style="stroke:none;fill:#ff0000;visibility:hidden">
      <circle cx="942.02502" cy="170.00692" r="3.8835"/>
    </g>
    <g id="image1-draw40" class="shape" timestamp="42.0" undo="-1" shape="image1-pencil3" style="stroke:#ff0000;stroke-linecap:round;stroke-linejoin:round;stroke-width:7.76699;visibility:hidden;fill:none">
      <path d="M942.02502 170.00692L930.92926 215.49934L927.60061 227.70459L924.27195 258.77256L919.83358 294.27902L914.28589 334.22351L908.738 375.2774"/>
    </g>
    <g id="image1-draw43" class="shape" timestamp="42.1" undo="-1" shape="image1-pencil3" style="stroke:#ff0000;stroke-linecap:round;stroke-linejoin:round;stroke-width:7.76699;visibility:hidden;fill:none">
      <path d="M942.02502 170.00692L930.92926 215.49934L927.60061 227.70459L924.27195 258.77256L919.83358 294.27902L914.28589 334.22351L908.738 375.2774L905.40924 396.35943L898.75183 435.1944L895.42318 455.16652L889.87528 491.78228L886.54653 509.53542L880.99864 541.71295L878.7795 557.24691L874.34133 582.76718L869.90306 598.30119"/>
    </g>
    <g id="image1-draw46" class="shape" timestamp="42.2" undo="-1" shape="image1-pencil3" style="stroke:#ff0000;stroke-linecap:round;stroke-linejoin:round;stroke-width:7.76699;visibility:hidden;fill:none">
      <path d="M942.02502 170.00692C918.65872 264.88814,910.47205 362.8686,894.86832 459.32742C886.58928 510.50691,884.12891 564.15471,863.24555 611.61579"/>
    </g>
    <g id="image1-draw47" class="shape" timestamp="42.5" undo="-1" shape="image1-pencil4" style="stroke:none;fill:#ff0000;visibility:hidden">
      <circle cx="790.01392" cy="262.10129" r="3.8835"/>
    </g>
    <g id="image1-draw49" class="shape" timestamp="42.6" undo="-1" shape="image1-pencil4" style="stroke:#ff0000;stroke-linecap:round;stroke-linejoin:round;stroke-width:7.76699;visibility:hidden;fill:none">
      <path d="M790.01392 262.10129L823.30109 228.81437L836.6158 217.71866L865.46468 195.5271L879.88912 186.65068L906.51886 168.8974L932.03898 153.36342"/>
    </g>
    <g id="image1-draw52" class="shape" timestamp="42.7" undo="-1" shape="image1-pencil4" style="stroke:#ff0000;stroke-linecap:round;stroke-linejoin:round;stroke-width:7.76699;visibility:hidden;fill:none">
      <path d="M790.01392 262.10129L823.30109 228.81437L836.6158 217.71866L865.46468 195.5271L879.88912 186.65068L906.51886 168.8974L932.03898 153.36342L945.3538 147.81574L957.5591 142.2677L981.9695 137.82944L991.95577 136.71991L1008.59924 137.82944L1015.25665 140.04875L1029.68119 148.92516L1040.77667 162.23994L1046.32467 171.1167"/>
    </g>
    <g id="image1-draw55" class="shape" timestamp="42.8" undo="-1" shape="image1-pencil4" style="stroke:#ff0000;stroke-linecap:round;stroke-linejoin:round;stroke-width:7.76699;visibility:hidden;fill:none">
      <path d="M790.01392 262.10129L823.30109 228.81437L836.6158 217.71866L865.46468 195.5271L879.88912 186.65068L906.51886 168.8974L932.03898 153.36342L945.3538 147.81574L957.5591 142.2677L981.9695 137.82944L991.95577 136.71991L1008.59924 137.82944L1015.25665 140.04875L1029.68119 148.92516L1040.77667 162.23994L1046.32467 171.1167L1052.98218 179.99312L1064.07766 202.18466L1069.62555 214.3898L1076.28316 238.8003L1078.5021 251.00555L1078.5021 274.30654L1068.51613 304.26496L1055.20111 325.34698L1046.32467 335.33292"/>
    </g>
    <g id="image1-draw58" class="shape" timestamp="43.3" undo="-1" shape="image1-pencil4" style="stroke:#ff0000;stroke-linecap:round;stroke-linejoin:round;stroke-width:7.76699;visibility:hidden;fill:none">
      <path d="M790.01392 262.10129L823.30109 228.81437L836.6158 217.71866L865.46468 195.5271L879.88912 186.65068L906.51886 168.8974L932.03898 153.36342L945.3538 147.81574L957.5591 142.2677L981.9695 137.82944L991.95577 136.71991L1008.59924 137.82944L1015.25665 140.04875L1029.68119 148.92516L1040.77667 162.23994L1046.32467 171.1167L1052.98218 179.99312L1064.07766 202.18466L1069.62555 214.3898L1076.28316 238.8003L1078.5021 251.00555L1078.5021 274.30654L1068.51613 304.26496L1055.20111 325.34698L1046.32467 335.33292L1024.1332 356.41495L998.61328 376.38718L981.9695 386.37314L966.43555 395.24989L948.68245 406.34537L918.72406 425.20808L904.29962 431.86554L877.66998 444.07079L866.5743 448.50906"/>
    </g>
    <g id="image1-draw72" class="shape" timestamp="43.4" undo="-1" shape="image1-pencil4" style="stroke:#ff0000;stroke-linecap:round;stroke-linejoin:round;stroke-width:7.76699;visibility:hidden;fill:none">
      <path d="M790.01392 262.10129L823.30109 228.81437L836.6158 217.71866L865.46468 195.5271L879.88912 186.65068L906.51886 168.8974L932.03898 153.36342L945.3538 147.81574L957.5591 142.2677L981.9695 137.82944L991.95577 136.71991L1008.59924 137.82944L1015.25665 140.04875L1029.68119 148.92516L1040.77667 162.23994L1046.32467 171.1167L1052.98218 179.99312L1064.07766 202.18466L1069.62555 214.3898L1076.28316 238.8003L1078.5021 251.00555L1078.5021 274.30654L1068.51613 304.26496L1055.20111 325.34698L1046.32467 335.33292L1024.1332 356.41495L998.61328 376.38718L981.9695 386.37314L966.43555 395.24989L948.68245 406.34537L918.72406 425.20808L904.29962 431.86554L877.66998 444.07079L866.5743 448.50906L848.82121 452.94734L842.1637 454.05711L833.2872 452.94734L829.95845 450.72835L831.06806 449.61884L832.17758 448.50906L836.6158 444.07079L841.05418 440.74203L851.04034 431.86554L857.69765 425.20808L872.12219 413.00283L882.10826 406.34537L900.97097 394.14012L919.83358 384.15418L929.81984 380.82545L950.90159 374.16786L961.99727 371.94893L971.98334 369.72961L994.1748 367.51043L1006.38021 367.51043L1027.46206 369.72961L1036.3384 373.05845L1054.09159 381.93487L1064.07766 386.37314L1081.83095 397.46885L1089.59798 403.01689L1101.80308 413.00283L1107.35107 418.55087L1118.44655 430.75612L1123.99455 437.41333L1132.87109 451.83777L1137.30927 458.49533L1143.96678 474.02934L1147.29553 481.79632L1149.51457 497.33032L1149.51457 507.31623L1149.51457 530.61722L1149.51457 542.82272L1146.18612 563.90437L1138.41909 581.65766L1133.98061 589.42464L1130.65206 598.30119"/>
    </g>
    <g id="image1-draw76" class="shape" timestamp="43.5" undo="-1" shape="image1-pencil4" style="stroke:#ff0000;stroke-linecap:round;stroke-linejoin:round;stroke-width:7.76699;visibility:hidden;fill:none">
      <path d="M790.01392 262.10129L823.30109 228.81437L836.6158 217.71866L865.46468 195.5271L879.88912 186.65068L906.51886 168.8974L932.03898 153.36342L945.3538 147.81574L957.5591 142.2677L981.9695 137.82944L991.95577 136.71991L1008.59924 137.82944L1015.25665 140.04875L1029.68119 148.92516L1040.77667 162.23994L1046.32467 171.1167L1052.98218 179.99312L1064.07766 202.18466L1069.62555 214.3898L1076.28316 238.8003L1078.5021 251.00555L1078.5021 274.30654L1068.51613 304.26496L1055.20111 325.34698L1046.32467 335.33292L1024.1332 356.41495L998.61328 376.38718L981.9695 386.37314L966.43555 395.24989L948.68245 406.34537L918.72406 425.20808L904.29962 431.86554L877.66998 444.07079L866.5743 448.50906L848.82121 452.94734L842.1637 454.05711L833.2872 452.94734L829.95845 450.72835L831.06806 449.61884L832.17758 448.50906L836.6158 444.07079L841.05418 440.74203L851.04034 431.86554L857.69765 425.20808L872.12219 413.00283L882.10826 406.34537L900.97097 394.14012L919.83358 384.15418L929.81984 380.82545L950.90159 374.16786L961.99727 371.94893L971.98334 369.72961L994.1748 367.51043L1006.38021 367.51043L1027.46206 369.72961L1036.3384 373.05845L1054.09159 381.93487L1064.07766 386.37314L1081.83095 397.46885L1089.59798 403.01689L1101.80308 413.00283L1107.35107 418.55087L1118.44655 430.75612L1123.99455 437.41333L1132.87109 451.83777L1137.30927 458.49533L1143.96678 474.02934L1147.29553 481.79632L1149.51457 497.33032L1149.51457 507.31623L1149.51457 530.61722L1149.51457 542.82272L1146.18612 563.90437L1138.41909 581.65766L1133.98061 589.42464L1130.65206 598.30119L1121.77531 611.61585L1112.89897 622.71154L1100.69356 630.47857L1084.05019 637.13613L1075.17334 639.35532L1051.87246 646.01252L1039.66715 648.23186L1008.59924 651.56057L990.84615 652.67008L949.79207 649.34128L880.99864 631.58808L836.6158 617.1639"/>
    </g>
    <g id="image1-draw79" class="shape" timestamp="43.6" undo="-1" shape="image1-pencil4" style="stroke:#ff0000;stroke-linecap:round;stroke-linejoin:round;stroke-width:7.76699;visibility:hidden;fill:none">
      <path d="M790.01392 262.10129C825.38917 227.41989,864.1368 195.57742,906.24144 169.45223C932.61083 153.09051,962.62144 135.62872,993.62006 137.27467C1024.62208 138.9208,1049.6488 171.54481,1062.69072 199.68805C1077.05632 230.68749,1080.98376 270.57551,1067.68384 302.04585C1049.73264 344.52236,1005.34205 371.88873,965.88074 395.80458C924.09589 421.12865,878.81067 452.18628,829.95843 450.72837C881.19117 402.80027,955.76192 355.38711,1024.41064 370.00704C1075.47864 380.88281,1123.86096 423.61146,1143.13464 472.08757C1154.34384 500.28054,1153.1592 533.83138,1145.07642 563.07228C1139.08832 584.73522,1129.09536 607.19211,1112.06666 621.87939C1079.14806 650.27178,1028.38598 654.86961,985.02088 651.56054C934.088 647.67398,884.83632 631.242,835.50624 617.99598C808.79712 610.82415,780.83227 602.56575,753.39819 606.06814L753.39819 607.17753L757.83643 603.84888"/>
    </g>
    <g id="image1-draw80" class="shape" timestamp="44.2" undo="-1" shape="image1-pencil5" style="stroke:none;fill:#ff0000;visibility:hidden">
      <circle cx="1276.0056" cy="232.14287" r="3.8835"/>
    </g>
    <g id="image1-draw82" class="shape" timestamp="44.3" undo="-1" shape="image1-pencil5" style="stroke:#ff0000;stroke-linecap:round;stroke-linejoin:round;stroke-width:7.76699;visibility:hidden;fill:none">
      <path d="M1276.0056 232.14287L1232.73234 274.30654L1222.74618 288.73098L1201.66443 322.01825L1183.91123 360.8532L1177.25403 383.04441L1170.59642 404.12641"/>
    </g>
    <g id="image1-draw85" class="shape" timestamp="44.4" undo="-1" shape="image1-pencil5" style="stroke:#ff0000;stroke-linecap:round;stroke-linejoin:round;stroke-width:7.76699;visibility:hidden;fill:none">
      <path d="M1276.0056 232.14287L1232.73234 274.30654L1222.74618 288.73098L1201.66443 322.01825L1183.91123 360.8532L1177.25403 383.04441L1170.59642 404.12641L1161.72007 446.29008L1159.50073 466.26236L1160.61025 509.53542L1162.82949 530.61722L1173.92527 573.89069L1187.23999 610.50629L1193.8974 626.04029L1199.44519 638.24554L1209.43146 653.7795"/>
    </g>
    <g id="image1-draw91" class="shape" timestamp="44.5" undo="-1" shape="image1-pencil5" style="stroke:#ff0000;stroke-linecap:round;stroke-linejoin:round;stroke-width:7.76699;visibility:hidden;fill:none">
      <path d="M1276.0056 232.14287C1256.5064 251.79685,1235.66368 270.64334,1219.97232 293.44667C1178.64096 353.51106,1155.53824 431.29805,1160.88768 503.98761C1163.43712 538.63029,1173.7721 572.56209,1185.57568 605.23587C1192.66496 624.85983,1198.6208 651.07035,1218.03056 658.77273C1227.80704 662.6524,1238.01344 650.62863,1245.49248 643.23864C1260.7472 628.16549,1275.3468 612.42219,1290.98486 597.74634C1342.1048 549.77199,1389.03232 497.50929,1436.89344 446.29009"/>
    </g>
  </g>
</svg>
